:FULLY-SPECIFIED
:FORCE-ALL-JOINTS-BE-3DOF
:DEGREES
48
root 0.583881 18.3851 -10.5086 4.38335 -7.02267 -3.21962
lfemur -17.8935 1.29901 -14.4567
ltibia 58.3717 0 0
lfoot 20.1728 0.198271 0
ltoes -11.2666 0 0
rfemur 1.3151 5.82316 30.7365
rtibia 21.9906 0 0
rfoot 16.2837 0.132804 0
rtoes 15.0871 0 0
lowerback 14.086 0.131359 3.13207
upperback 1.08539 0.624638 0.400042
thorax -6.51475 0.231726 -1.40662
lowerneck -6.05337 1.29243 -1.03144
upperneck -8.66821 1.7307 0.0271771
head -1.7068 0.905843 0.135398
lclavicle -4.78687e-15 1.52936e-15 0
lhumerus -48.9704 -11.0538 92.3427
lradius 105.565 0 0
lwrist 28.1462 0 0
lhand -38.2119 10.591 0
lfingers 7.12502 0 0
lthumb -11.2435 40.2684 0
rclavicle -4.78687e-15 1.52936e-15 0
rhumerus -41.423 14.1923 -86.3712
rradius 102.217 0 0
rwrist -3.07802 0 0
rhand -43.7745 36.9444 0
rfingers 7.12502 0 0
rthumb -16.6042 7.63474 0
49
root 0.586231 18.4203 -9.97642 4.46258 -6.77636 -3.50714
lfemur -19.3689 0.693115 -13.8843
ltibia 56.945 0 0
lfoot 19.5927 -0.0691571 0
ltoes -11.5948 0 0
rfemur 2.97169 6.02024 31.0332
rtibia 21.6343 0 0
rfoot 17.4257 -0.0992574 0
rtoes 15.3974 0 0
lowerback 13.9952 0.227638 3.43203
upperback 1.06278 0.797303 0.409857
thorax -6.47814 0.307965 -1.59819
lowerneck -6.1737 1.15457 -1.00858
upperneck -8.51447 1.55268 0.110681
head -1.63656 0.815091 0.158724
lclavicle -5.1668e-15 1.10935e-15 0
lhumerus -49.8784 -10.5437 92.2388
lradius 105.466 0 0
lwrist 28.0026 0 0
lhand -38.1638 10.6153 0
lfingers 7.12502 0 0
lthumb -11.1971 40.2952 0
rclavicle -5.1668e-15 1.10935e-15 0
rhumerus -40.688 14.8797 -86.4846
rradius 102.795 0 0
rwrist -2.98656 0 0
rhand -43.7669 36.8947 0
rfingers 7.12502 0 0
rthumb -16.5968 7.58444 0
50
root 0.58858 18.4555 -9.44426 4.54182 -6.53005 -3.79467
lfemur -20.8442 0.0872219 -13.3119
ltibia 55.5183 0 0
lfoot 19.0126 -0.336585 0
ltoes -11.9231 0 0
rfemur 4.62828 6.21732 31.3299
rtibia 21.2781 0 0
rfoot 18.5677 -0.331319 0
rtoes 15.7076 0 0
lowerback 13.9043 0.323917 3.732
upperback 1.04016 0.969969 0.419671
thorax -6.44154 0.384204 -1.78976
lowerneck -6.29402 1.01671 -0.985725
upperneck -8.36073 1.37466 0.194185
head -1.56632 0.724339 0.18205
lclavicle -5.54674e-15 6.89334e-16 0
lhumerus -50.7864 -10.0335 92.1348
lradius 105.367 0 0
lwrist 27.859 0 0
lhand -38.1156 10.6396 0
lfingers 7.12502 0 0
lthumb -11.1506 40.3221 0
rclavicle -5.54674e-15 6.89334e-16 0
rhumerus -39.953 15.5672 -86.5979
rradius 103.373 0 0
rwrist -2.8951 0 0
rhand -43.7593 36.845 0
rfingers 7.12502 0 0
rthumb -16.5895 7.53414 0
51
root 0.590929 18.4907 -8.91209 4.62106 -6.28374 -4.08219
lfemur -22.3195 -0.518671 -12.7395
ltibia 54.0917 0 0
lfoot 18.4325 -0.604013 0
ltoes -12.2513 0 0
rfemur 6.28488 6.4144 31.6266
rtibia 20.9218 0 0
rfoot 19.7097 -0.563381 0
rtoes 16.0179 0 0
lowerback 13.8135 0.420195 4.03196
upperback 1.01754 1.14263 0.429486
thorax -6.40494 0.460443 -1.98134
lowerneck -6.41435 0.878852 -0.962868
upperneck -8.20698 1.19664 0.27769
head -1.49608 0.633586 0.205376
lclavicle -5.92667e-15 2.69321e-16 0
lhumerus -51.6944 -9.52336 92.0308
lradius 105.268 0 0
lwrist 27.7154 0 0
lhand -38.0674 10.6639 0
lfingers 7.12502 0 0
lthumb -11.1042 40.3489 0
rclavicle -5.92667e-15 2.69321e-16 0
rhumerus -39.218 16.2546 -86.7113
rradius 103.951 0 0
rwrist -2.80363 0 0
rhand -43.7516 36.7954 0
rfingers 7.12502 0 0
rthumb -16.5821 7.48385 0
52
root 0.593279 18.5258 -8.37993 4.70029 -6.03743 -4.36972
lfemur -23.7949 -1.12456 -12.1671
ltibia 52.665 0 0
lfoot 17.8524 -0.871441 0
ltoes -12.5795 0 0
rfemur 7.94147 6.61148 31.9233
rtibia 20.5656 0 0
rfoot 20.8517 -0.795442 0
rtoes 16.3281 0 0
lowerback 13.7226 0.516474 4.33192
upperback 0.994927 1.3153 0.439301
thorax -6.36833 0.536682 -2.17291
lowerneck -6.53467 0.740994 -0.940011
upperneck -8.05324 1.01861 0.361194
head -1.42584 0.542834 0.228702
lclavicle -6.30661e-15 -1.50692e-16 0
lhumerus -52.6024 -9.01321 91.9269
lradius 105.17 0 0
lwrist 27.5718 0 0
lhand -38.0193 10.6883 0
lfingers 7.12502 0 0
lthumb -11.0577 40.3758 0
rclavicle -6.30661e-15 -1.50692e-16 0
rhumerus -38.4831 16.9421 -86.8247
rradius 104.529 0 0
rwrist -2.71217 0 0
rhand -43.744 36.7457 0
rfingers 7.12502 0 0
rthumb -16.5748 7.43355 0
53
root 0.595628 18.561 -7.84777 4.77953 -5.79112 -4.65724
lfemur -25.2702 -1.73046 -11.5947
ltibia 51.2383 0 0
lfoot 17.2723 -1.13887 0
ltoes -12.9077 0 0
rfemur 9.59806 6.80856 32.22
rtibia 20.2094 0 0
rfoot 21.9937 -1.0275 0
rtoes 16.6383 0 0
lowerback 13.6318 0.612753 4.63189
upperback 0.97231 1.48797 0.449116
thorax -6.33173 0.612921 -2.36448
lowerneck -6.655 0.603136 -0.917154
upperneck -7.8995 0.840594 0.444698
head -1.3556 0.452082 0.252028
lclavicle -6.68655e-15 -5.70704e-16 0
lhumerus -53.5104 -8.50306 91.8229
lradius 105.071 0 0
lwrist 27.4282 0 0
lhand -37.9711 10.7126 0
lfingers 7.12502 0 0
lthumb -11.0113 40.4026 0
rclavicle -6.68655e-15 -5.70704e-16 0
rhumerus -37.7481 17.6296 -86.9381
rradius 105.107 0 0
rwrist -2.62071 0 0
rhand -43.7364 36.696 0
rfingers 7.12502 0 0
rthumb -16.5675 7.38325 0
54
root 0.597978 18.5962 -7.3156 4.85876 -5.54482 -4.94477
lfemur -26.7455 -2.33635 -11.0223
ltibia 49.8116 0 0
lfoot 16.6923 -1.4063 0
ltoes -13.2359 0 0
rfemur 11.2547 7.00564 32.5167
rtibia 19.8531 0 0
rfoot 23.1357 -1.25957 0
rtoes 16.9486 0 0
lowerback 13.5409 0.709032 4.93185
upperback 0.949694 1.66063 0.45893
thorax -6.29512 0.68916 -2.55606
lowerneck -6.77532 0.465278 -0.894297
upperneck -7.74576 0.662572 0.528202
head -1.28536 0.36133 0.275354
lclavicle -7.06648e-15 -9.90717e-16 0
lhumerus -54.4184 -7.9929 91.719
lradius 104.972 0 0
lwrist 27.2847 0 0
lhand -37.923 10.7369 0
lfingers 7.12502 0 0
lthumb -10.9648 40.4295 0
rclavicle -7.06648e-15 -9.90717e-16 0
rhumerus -37.0131 18.317 -87.0514
rradius 105.685 0 0
rwrist -2.52924 0 0
rhand -43.7288 36.6463 0
rfingers 7.12502 0 0
rthumb -16.5601 7.33295 0
55
root 0.600327 18.6314 -6.78344 4.938 -5.29851 -5.23229
lfemur -28.2208 -2.94224 -10.4499
ltibia 48.3849 0 0
lfoot 16.1122 -1.67373 0
ltoes -13.5642 0 0
rfemur 12.9113 7.20272 32.8134
rtibia 19.4969 0 0
rfoot 24.2777 -1.49163 0
rtoes 17.2588 0 0
lowerback 13.4501 0.80531 5.23181
upperback 0.927077 1.8333 0.468745
thorax -6.25852 0.765399 -2.74763
lowerneck -6.89565 0.327419 -0.87144
upperneck -7.59201 0.484551 0.611706
head -1.21512 0.270577 0.29868
lclavicle -7.44642e-15 -1.41073e-15 0
lhumerus -55.3264 -7.48275 91.615
lradius 104.873 0 0
lwrist 27.1411 0 0
lhand -37.8748 10.7612 0
lfingers 7.12502 0 0
lthumb -10.9184 40.4563 0
rclavicle -7.44642e-15 -1.41073e-15 0
rhumerus -36.2781 19.0045 -87.1648
rradius 106.263 0 0
rwrist -2.43778 0 0
rhand -43.7211 36.5966 0
rfingers 7.12502 0 0
rthumb -16.5528 7.28266 0
56
root 0.602676 18.6666 -6.25127 5.01724 -5.0522 -5.51982
lfemur -29.6962 -3.54814 -9.87745
ltibia 46.9583 0 0
lfoot 15.5321 -1.94115 0
ltoes -13.8924 0 0
rfemur 14.5678 7.3998 33.1102
rtibia 19.1406 0 0
rfoot 25.4197 -1.72369 0
rtoes 17.5691 0 0
lowerback 13.3592 0.901589 5.53178
upperback 0.904461 2.00596 0.47856
thorax -6.22192 0.841638 -2.93921
lowerneck -7.01597 0.189561 -0.848584
upperneck -7.43827 0.30653 0.695211
head -1.14488 0.179825 0.322005
lclavicle -7.82635e-15 -1.83074e-15 0
lhumerus -56.2344 -6.97259 91.511
lradius 104.774 0 0
lwrist 26.9975 0 0
lhand -37.8266 10.7855 0
lfingers 7.12502 0 0
lthumb -10.8719 40.4832 0
rclavicle -7.82635e-15 -1.83074e-15 0
rhumerus -35.5431 19.6919 -87.2782
rradius 106.841 0 0
rwrist -2.34631 0 0
rhand -43.7135 36.547 0
rfingers 7.12502 0 0
rthumb -16.5454 7.23236 0
